<mxfile host="app.diagrams.net" agent="Mozilla/5.0 (Windows NT 10.0; Win64; x64) AppleWebKit/537.36 (KHTML, like Gecko) Chrome/130.0.0.0 Safari/537.36" version="24.8.4">
  <diagram id="C5RBs43oDa-KdzZeNtuy" name="Page-1">
    <mxGraphModel dx="1050" dy="557" grid="1" gridSize="10" guides="1" tooltips="1" connect="1" arrows="1" fold="1" page="1" pageScale="1" pageWidth="1169" pageHeight="827" math="0" shadow="0">
      <root>
        <mxCell id="WIyWlLk6GJQsqaUBKTNV-0" />
        <mxCell id="WIyWlLk6GJQsqaUBKTNV-1" parent="WIyWlLk6GJQsqaUBKTNV-0" />
        <mxCell id="jnVZOQeiPzx1CEPFSUkW-0" value="Approval" style="swimlane;whiteSpace=wrap;html=1;" vertex="1" parent="WIyWlLk6GJQsqaUBKTNV-1">
          <mxGeometry x="30" y="120" width="160" height="400" as="geometry" />
        </mxCell>
        <mxCell id="jnVZOQeiPzx1CEPFSUkW-1" value="" style="edgeStyle=orthogonalEdgeStyle;rounded=0;orthogonalLoop=1;jettySize=auto;html=1;" edge="1" parent="jnVZOQeiPzx1CEPFSUkW-0" source="jnVZOQeiPzx1CEPFSUkW-2" target="jnVZOQeiPzx1CEPFSUkW-3">
          <mxGeometry relative="1" as="geometry" />
        </mxCell>
        <mxCell id="jnVZOQeiPzx1CEPFSUkW-2" value="기안 완료" style="rounded=1;whiteSpace=wrap;html=1;" vertex="1" parent="jnVZOQeiPzx1CEPFSUkW-0">
          <mxGeometry x="20" y="40" width="120" height="60" as="geometry" />
        </mxCell>
        <mxCell id="jnVZOQeiPzx1CEPFSUkW-3" value="Producer" style="whiteSpace=wrap;html=1;rounded=1;" vertex="1" parent="jnVZOQeiPzx1CEPFSUkW-0">
          <mxGeometry x="20" y="120" width="120" height="60" as="geometry" />
        </mxCell>
        <mxCell id="jnVZOQeiPzx1CEPFSUkW-4" value="Kafka cluster" style="swimlane;whiteSpace=wrap;html=1;" vertex="1" parent="WIyWlLk6GJQsqaUBKTNV-1">
          <mxGeometry x="270" y="200" width="170" height="160" as="geometry" />
        </mxCell>
        <mxCell id="jnVZOQeiPzx1CEPFSUkW-5" value="Topic" style="rounded=1;whiteSpace=wrap;html=1;" vertex="1" parent="jnVZOQeiPzx1CEPFSUkW-4">
          <mxGeometry x="25" y="40" width="120" height="60" as="geometry" />
        </mxCell>
        <mxCell id="jnVZOQeiPzx1CEPFSUkW-6" value="Broker" style="rounded=0;whiteSpace=wrap;html=1;" vertex="1" parent="jnVZOQeiPzx1CEPFSUkW-4">
          <mxGeometry x="27" y="110" width="115" height="30" as="geometry" />
        </mxCell>
        <mxCell id="jnVZOQeiPzx1CEPFSUkW-7" style="edgeStyle=orthogonalEdgeStyle;rounded=0;orthogonalLoop=1;jettySize=auto;html=1;exitX=1;exitY=0.5;exitDx=0;exitDy=0;" edge="1" parent="WIyWlLk6GJQsqaUBKTNV-1" source="jnVZOQeiPzx1CEPFSUkW-3" target="jnVZOQeiPzx1CEPFSUkW-5">
          <mxGeometry relative="1" as="geometry">
            <mxPoint x="300" y="270.0344827586207" as="targetPoint" />
          </mxGeometry>
        </mxCell>
        <mxCell id="jnVZOQeiPzx1CEPFSUkW-8" value="Producing" style="text;html=1;align=center;verticalAlign=middle;resizable=0;points=[];autosize=1;strokeColor=none;fillColor=none;" vertex="1" parent="WIyWlLk6GJQsqaUBKTNV-1">
          <mxGeometry x="190" y="240" width="80" height="30" as="geometry" />
        </mxCell>
        <mxCell id="jnVZOQeiPzx1CEPFSUkW-9" value="Approval" style="swimlane;whiteSpace=wrap;html=1;" vertex="1" parent="WIyWlLk6GJQsqaUBKTNV-1">
          <mxGeometry x="520" y="120" width="160" height="400" as="geometry" />
        </mxCell>
        <mxCell id="jnVZOQeiPzx1CEPFSUkW-10" value="Consumer" style="whiteSpace=wrap;html=1;rounded=1;" vertex="1" parent="jnVZOQeiPzx1CEPFSUkW-9">
          <mxGeometry x="20" y="40" width="120" height="60" as="geometry" />
        </mxCell>
        <mxCell id="jnVZOQeiPzx1CEPFSUkW-11" value="callbck 요청" style="rounded=1;whiteSpace=wrap;html=1;" vertex="1" parent="jnVZOQeiPzx1CEPFSUkW-9">
          <mxGeometry x="20" y="130" width="120" height="60" as="geometry" />
        </mxCell>
        <mxCell id="jnVZOQeiPzx1CEPFSUkW-12" style="edgeStyle=orthogonalEdgeStyle;rounded=0;orthogonalLoop=1;jettySize=auto;html=1;exitX=0.5;exitY=1;exitDx=0;exitDy=0;" edge="1" parent="jnVZOQeiPzx1CEPFSUkW-9" source="jnVZOQeiPzx1CEPFSUkW-10" target="jnVZOQeiPzx1CEPFSUkW-11">
          <mxGeometry relative="1" as="geometry">
            <mxPoint x="80" y="130" as="targetPoint" />
          </mxGeometry>
        </mxCell>
        <mxCell id="jnVZOQeiPzx1CEPFSUkW-13" style="edgeStyle=orthogonalEdgeStyle;rounded=0;orthogonalLoop=1;jettySize=auto;html=1;exitX=0.5;exitY=1;exitDx=0;exitDy=0;" edge="1" parent="jnVZOQeiPzx1CEPFSUkW-9" source="jnVZOQeiPzx1CEPFSUkW-14">
          <mxGeometry relative="1" as="geometry">
            <mxPoint x="80" y="320" as="targetPoint" />
          </mxGeometry>
        </mxCell>
        <mxCell id="jnVZOQeiPzx1CEPFSUkW-14" value="정상적으로&lt;div&gt;성공하였는지&lt;/div&gt;" style="rhombus;whiteSpace=wrap;html=1;" vertex="1" parent="jnVZOQeiPzx1CEPFSUkW-9">
          <mxGeometry x="25" y="220" width="110" height="70" as="geometry" />
        </mxCell>
        <mxCell id="jnVZOQeiPzx1CEPFSUkW-15" style="edgeStyle=orthogonalEdgeStyle;rounded=0;orthogonalLoop=1;jettySize=auto;html=1;exitX=0.5;exitY=1;exitDx=0;exitDy=0;" edge="1" parent="jnVZOQeiPzx1CEPFSUkW-9" source="jnVZOQeiPzx1CEPFSUkW-11" target="jnVZOQeiPzx1CEPFSUkW-14">
          <mxGeometry relative="1" as="geometry">
            <mxPoint x="80" y="220" as="targetPoint" />
          </mxGeometry>
        </mxCell>
        <mxCell id="jnVZOQeiPzx1CEPFSUkW-16" value="종료" style="rounded=1;whiteSpace=wrap;html=1;" vertex="1" parent="jnVZOQeiPzx1CEPFSUkW-9">
          <mxGeometry x="20" y="320" width="120" height="60" as="geometry" />
        </mxCell>
        <mxCell id="jnVZOQeiPzx1CEPFSUkW-17" style="edgeStyle=orthogonalEdgeStyle;rounded=0;orthogonalLoop=1;jettySize=auto;html=1;entryX=1;entryY=0.5;entryDx=0;entryDy=0;" edge="1" parent="WIyWlLk6GJQsqaUBKTNV-1" source="jnVZOQeiPzx1CEPFSUkW-10" target="jnVZOQeiPzx1CEPFSUkW-5">
          <mxGeometry relative="1" as="geometry" />
        </mxCell>
        <mxCell id="jnVZOQeiPzx1CEPFSUkW-18" value="Consuming" style="text;html=1;align=center;verticalAlign=middle;resizable=0;points=[];autosize=1;strokeColor=none;fillColor=none;" vertex="1" parent="WIyWlLk6GJQsqaUBKTNV-1">
          <mxGeometry x="440" y="158" width="80" height="30" as="geometry" />
        </mxCell>
        <mxCell id="jnVZOQeiPzx1CEPFSUkW-19" value="Yes" style="text;html=1;align=center;verticalAlign=middle;resizable=0;points=[];autosize=1;strokeColor=none;fillColor=none;" vertex="1" parent="WIyWlLk6GJQsqaUBKTNV-1">
          <mxGeometry x="600" y="408" width="40" height="30" as="geometry" />
        </mxCell>
        <mxCell id="jnVZOQeiPzx1CEPFSUkW-20" value="" style="edgeStyle=orthogonalEdgeStyle;rounded=0;orthogonalLoop=1;jettySize=auto;html=1;" edge="1" parent="WIyWlLk6GJQsqaUBKTNV-1" source="jnVZOQeiPzx1CEPFSUkW-22" target="jnVZOQeiPzx1CEPFSUkW-11">
          <mxGeometry relative="1" as="geometry" />
        </mxCell>
        <mxCell id="jnVZOQeiPzx1CEPFSUkW-21" style="edgeStyle=orthogonalEdgeStyle;rounded=0;orthogonalLoop=1;jettySize=auto;html=1;exitX=1;exitY=0.5;exitDx=0;exitDy=0;" edge="1" parent="WIyWlLk6GJQsqaUBKTNV-1" source="jnVZOQeiPzx1CEPFSUkW-22">
          <mxGeometry relative="1" as="geometry">
            <mxPoint x="880" y="440" as="targetPoint" />
          </mxGeometry>
        </mxCell>
        <mxCell id="jnVZOQeiPzx1CEPFSUkW-22" value="retryCount &amp;lt; 5" style="rhombus;whiteSpace=wrap;html=1;" vertex="1" parent="WIyWlLk6GJQsqaUBKTNV-1">
          <mxGeometry x="720" y="245" width="110" height="70" as="geometry" />
        </mxCell>
        <mxCell id="jnVZOQeiPzx1CEPFSUkW-23" style="edgeStyle=orthogonalEdgeStyle;rounded=0;orthogonalLoop=1;jettySize=auto;html=1;entryX=0.5;entryY=1;entryDx=0;entryDy=0;" edge="1" parent="WIyWlLk6GJQsqaUBKTNV-1" source="jnVZOQeiPzx1CEPFSUkW-14" target="jnVZOQeiPzx1CEPFSUkW-22">
          <mxGeometry relative="1" as="geometry">
            <mxPoint x="760" y="310" as="targetPoint" />
          </mxGeometry>
        </mxCell>
        <mxCell id="jnVZOQeiPzx1CEPFSUkW-24" value="Yes" style="text;html=1;align=center;verticalAlign=middle;resizable=0;points=[];autosize=1;strokeColor=none;fillColor=none;" vertex="1" parent="WIyWlLk6GJQsqaUBKTNV-1">
          <mxGeometry x="680" y="250" width="40" height="30" as="geometry" />
        </mxCell>
        <mxCell id="jnVZOQeiPzx1CEPFSUkW-25" value="별도 처리" style="rounded=1;whiteSpace=wrap;html=1;" vertex="1" parent="WIyWlLk6GJQsqaUBKTNV-1">
          <mxGeometry x="820" y="438" width="120" height="60" as="geometry" />
        </mxCell>
        <mxCell id="jnVZOQeiPzx1CEPFSUkW-26" value="No" style="text;html=1;align=center;verticalAlign=middle;resizable=0;points=[];autosize=1;strokeColor=none;fillColor=none;" vertex="1" parent="WIyWlLk6GJQsqaUBKTNV-1">
          <mxGeometry x="840" y="250" width="40" height="30" as="geometry" />
        </mxCell>
        <mxCell id="jnVZOQeiPzx1CEPFSUkW-27" value="No" style="text;html=1;align=center;verticalAlign=middle;resizable=0;points=[];autosize=1;strokeColor=none;fillColor=none;" vertex="1" parent="WIyWlLk6GJQsqaUBKTNV-1">
          <mxGeometry x="690" y="348" width="40" height="30" as="geometry" />
        </mxCell>
      </root>
    </mxGraphModel>
  </diagram>
</mxfile>
